<?xml version="1.0" encoding="iso-8859-1"?>
<!-- Generator: Adobe Illustrator 19.0.0, SVG Export Plug-In . SVG Version: 6.00 Build 0)  -->
<svg version="1.1" id="Layer_1" xmlns="http://www.w3.org/2000/svg" xmlns:xlink="http://www.w3.org/1999/xlink" x="0px" y="0px"
	 viewBox="0 0 439.383 439.383" style="enable-background:new 0 0 439.383 439.383;" xml:space="preserve">
<g>
	<g>
		<g>
			<path d="M87.367,352.016h264.649V87.367H87.367V352.016z M102.367,152.296h202.205v-15H102.367v-34.93h234.65v0.001v234.649
				h-234.65V152.296z"/>
			<rect x="294.586" y="267.114" width="19.973" height="15"/>
			<rect x="294.586" y="297.072" width="19.973" height="15"/>
			<rect x="264.628" y="297.072" width="19.972" height="15"/>
			<rect x="234.67" y="267.114" width="49.93" height="15"/>
			<path d="M439.383,97.374v-15h-52.416V69.902c0-9.642-7.844-17.486-17.485-17.486h-2.486V0h-15v52.416h-54.901V14.979h-15v37.437
				h-54.902V0h-15v52.416h-54.901V14.979h-15v37.437H87.389V0h-15v52.416h-2.486c-9.642,0-17.486,7.844-17.486,17.486v12.472H0.001
				v15h52.415v44.916H14.98v15h37.437v54.902H0.001v15h52.415V277.1H14.98v15h37.437v49.909H0.001v15h52.415v12.472
				c0,9.642,7.845,17.486,17.486,17.486h2.486v52.416h15v-52.416h54.901v37.437h15v-37.437h54.901v52.416h15v-52.416h54.902v37.437
				h15v-37.437h54.901v52.416h15v-52.416h2.486c9.642,0,17.485-7.844,17.485-17.486v-12.472h52.416v-15h-52.416V292.1h37.438v-15
				h-37.438v-49.909h52.416v-15h-52.416V157.29h37.438v-15h-37.438V97.374H439.383z M371.966,369.48
				c0,1.348-1.138,2.486-2.485,2.486H69.902c-1.348,0-2.486-1.139-2.486-2.486V69.902c0-1.348,1.139-2.486,2.486-2.486h299.579
				c1.348,0,2.485,1.138,2.485,2.486V369.48z"/>
			<rect x="132.303" y="174.754" width="15" height="39.944"/>
			<rect x="172.248" y="174.754" width="15" height="39.944"/>
			<rect x="212.191" y="174.754" width="15" height="39.944"/>
			<rect x="252.136" y="174.754" width="15" height="39.944"/>
			<rect x="292.078" y="174.754" width="15" height="39.944"/>
		</g>
	</g>
</g>
<g>
</g>
<g>
</g>
<g>
</g>
<g>
</g>
<g>
</g>
<g>
</g>
<g>
</g>
<g>
</g>
<g>
</g>
<g>
</g>
<g>
</g>
<g>
</g>
<g>
</g>
<g>
</g>
<g>
</g>
</svg>
