<?xml version="1.0" encoding="iso-8859-1"?>
<!-- Generator: Adobe Illustrator 16.0.0, SVG Export Plug-In . SVG Version: 6.00 Build 0)  -->
<!DOCTYPE svg PUBLIC "-//W3C//DTD SVG 1.1//EN" "http://www.w3.org/Graphics/SVG/1.1/DTD/svg11.dtd">
<svg version="1.1" id="Capa_1" xmlns="http://www.w3.org/2000/svg" xmlns:xlink="http://www.w3.org/1999/xlink" x="0px" y="0px"
	 width="52.105px" height="52.105px" viewBox="0 0 52.105 52.105" style="enable-background:new 0 0 52.105 52.105;"
	 xml:space="preserve">
<g>
	<path d="M26.053,0C11.688,0,0,11.687,0,26.053c0,14.365,11.687,26.053,26.053,26.053c14.365,0,26.053-11.688,26.053-26.053
		C52.105,11.687,40.418,0,26.053,0z M26.053,50.855c-13.677,0-24.803-11.127-24.803-24.803S12.376,1.25,26.053,1.25
		c13.678,0,24.803,11.126,24.803,24.803C50.855,39.729,39.73,50.855,26.053,50.855z"/>
	<path d="M26.051,5.449c-11.359,0-20.602,9.243-20.602,20.604c0,11.361,9.243,20.604,20.602,20.604
		c11.361,0,20.605-9.243,20.605-20.604C46.656,14.691,37.412,5.449,26.051,5.449z M6.699,26.053
		c0-10.671,8.681-19.354,19.352-19.354c2.305,0,4.506,0.426,6.557,1.167l-5.535,13.93c-0.329-0.079-0.667-0.131-1.02-0.131
		c-2.419,0-4.387,1.968-4.387,4.387c0,0.728,0.194,1.403,0.509,2.007l-12.206,8.74C7.906,33.725,6.699,30.027,6.699,26.053z
		 M29.189,26.053c0,1.73-1.406,3.137-3.137,3.137c-1.729,0-3.137-1.406-3.137-3.137c0-1.73,1.407-3.137,3.137-3.137
		C27.781,22.916,29.189,24.323,29.189,26.053z M10.712,37.806l12.183-8.723c0.286,0.299,0.62,0.547,0.98,0.755l-5.544,13.951
		C15.308,42.468,12.697,40.391,10.712,37.806z M45.406,26.053c0,10.672-8.684,19.354-19.355,19.354
		c-2.303,0-4.503-0.424-6.554-1.166l5.537-13.932c0.328,0.079,0.666,0.131,1.018,0.131c2.419,0,4.388-1.968,4.388-4.387
		c0-0.727-0.195-1.403-0.51-2.007l12.206-8.739C44.199,18.383,45.406,22.079,45.406,26.053z M29.211,23.023
		c-0.286-0.299-0.62-0.547-0.98-0.755l5.545-13.95c3.021,1.321,5.633,3.398,7.618,5.983L29.211,23.023z"/>
</g>
<g>
</g>
<g>
</g>
<g>
</g>
<g>
</g>
<g>
</g>
<g>
</g>
<g>
</g>
<g>
</g>
<g>
</g>
<g>
</g>
<g>
</g>
<g>
</g>
<g>
</g>
<g>
</g>
<g>
</g>
</svg>
